<svg width="17" height="28" viewBox="0 0 17 28" fill="none" xmlns="http://www.w3.org/2000/svg">
<mask id="path-1-outside-1_4_98" maskUnits="userSpaceOnUse" x="-1" y="0.5" width="18" height="27" fill="black">
<rect fill="white" x="-1" y="0.5" width="18" height="27"/>
<path d="M6.42188 2.75V25.5H1.84375V2.75H6.42188ZM13.5469 12.4219V16.2031H5.26562V12.4219H13.5469ZM14.4219 2.75V6.54688H5.26562V2.75H14.4219Z"/>
</mask>
<path d="M6.42188 2.75V25.5H1.84375V2.75H6.42188ZM13.5469 12.4219V16.2031H5.26562V12.4219H13.5469ZM14.4219 2.75V6.54688H5.26562V2.75H14.4219Z" fill="white"/>
<path d="M6.42188 2.75H8.42188V0.75H6.42188V2.75ZM6.42188 25.5V27.5H8.42188V25.5H6.42188ZM1.84375 25.5H-0.15625V27.5H1.84375V25.5ZM1.84375 2.75V0.75H-0.15625V2.75H1.84375ZM13.5469 12.4219H15.5469V10.4219H13.5469V12.4219ZM13.5469 16.2031V18.2031H15.5469V16.2031H13.5469ZM5.26562 16.2031H3.26562V18.2031H5.26562V16.2031ZM5.26562 12.4219V10.4219H3.26562V12.4219H5.26562ZM14.4219 2.75H16.4219V0.75H14.4219V2.75ZM14.4219 6.54688V8.54688H16.4219V6.54688H14.4219ZM5.26562 6.54688H3.26562V8.54688H5.26562V6.54688ZM5.26562 2.75V0.75H3.26562V2.75H5.26562ZM4.42188 2.75V25.5H8.42188V2.75H4.42188ZM6.42188 23.5H1.84375V27.5H6.42188V23.5ZM3.84375 25.5V2.75H-0.15625V25.5H3.84375ZM1.84375 4.75H6.42188V0.75H1.84375V4.75ZM11.5469 12.4219V16.2031H15.5469V12.4219H11.5469ZM13.5469 14.2031H5.26562V18.2031H13.5469V14.2031ZM7.26562 16.2031V12.4219H3.26562V16.2031H7.26562ZM5.26562 14.4219H13.5469V10.4219H5.26562V14.4219ZM12.4219 2.75V6.54688H16.4219V2.75H12.4219ZM14.4219 4.54688H5.26562V8.54688H14.4219V4.54688ZM7.26562 6.54688V2.75H3.26562V6.54688H7.26562ZM5.26562 4.75H14.4219V0.75H5.26562V4.75Z" fill="black" mask="url(#path-1-outside-1_4_98)"/>
</svg>
