<svg width="225" height="38" viewBox="0 0 225 38" fill="none" xmlns="http://www.w3.org/2000/svg">
<mask id="path-1-outside-1_1_8" maskUnits="userSpaceOnUse" x="-1" y="4" width="135" height="29" fill="black">
<rect fill="white" x="-1" y="4" width="135" height="29"/>
<path d="M6.42188 7.25V30H1.84375V7.25H6.42188ZM13.5469 16.9219V20.7031H5.26562V16.9219H13.5469ZM14.4219 7.25V11.0469H5.26562V7.25H14.4219ZM33.0781 16.8594V20.6562C33.0781 22.2604 32.8802 23.6667 32.4844 24.875C32.099 26.0729 31.5469 27.0781 30.8281 27.8906C30.1198 28.6927 29.2604 29.2969 28.25 29.7031C27.25 30.1094 26.1406 30.3125 24.9219 30.3125C23.7031 30.3125 22.5885 30.1094 21.5781 29.7031C20.5781 29.2969 19.7135 28.6927 18.9844 27.8906C18.2656 27.0781 17.7083 26.0729 17.3125 24.875C16.9167 23.6667 16.7188 22.2604 16.7188 20.6562V16.8594C16.7188 15.2135 16.9115 13.776 17.2969 12.5469C17.6823 11.3073 18.2396 10.276 18.9688 9.45312C19.6979 8.61979 20.5625 7.99479 21.5625 7.57812C22.5625 7.15104 23.6719 6.9375 24.8906 6.9375C26.1094 6.9375 27.2188 7.15104 28.2188 7.57812C29.2188 7.99479 30.0833 8.61979 30.8125 9.45312C31.5417 10.276 32.099 11.3073 32.4844 12.5469C32.8802 13.776 33.0781 15.2135 33.0781 16.8594ZM28.5312 20.6562V16.8281C28.5312 15.7448 28.4531 14.8229 28.2969 14.0625C28.1406 13.2917 27.9062 12.6615 27.5938 12.1719C27.2812 11.6823 26.901 11.3229 26.4531 11.0938C26.0052 10.8646 25.4844 10.75 24.8906 10.75C24.2969 10.75 23.7708 10.8646 23.3125 11.0938C22.8646 11.3229 22.4844 11.6823 22.1719 12.1719C21.8698 12.6615 21.6406 13.2917 21.4844 14.0625C21.3385 14.8229 21.2656 15.7448 21.2656 16.8281V20.6562C21.2656 21.6979 21.3438 22.5885 21.5 23.3281C21.6562 24.0677 21.8906 24.6719 22.2031 25.1406C22.5156 25.6094 22.8958 25.9583 23.3438 26.1875C23.8021 26.4062 24.3281 26.5156 24.9219 26.5156C25.5052 26.5156 26.0208 26.4062 26.4688 26.1875C26.9271 25.9583 27.3073 25.6094 27.6094 25.1406C27.9115 24.6719 28.1406 24.0677 28.2969 23.3281C28.4531 22.5885 28.5312 21.6979 28.5312 20.6562ZM52.3125 7.25V30H47.8906L40.75 15.7656V30H36.4062V7.25H40.7656L47.9688 21.6406V7.25H52.3125ZM64.5938 7.25V30H60.0469V7.25H64.5938ZM70.25 7.25V11.0469H54.5V7.25H70.25ZM82.2812 24.0156C82.2812 23.6094 82.2448 23.2396 82.1719 22.9062C82.099 22.5729 81.9427 22.2656 81.7031 21.9844C81.474 21.7031 81.1354 21.4219 80.6875 21.1406C80.25 20.8594 79.6771 20.5677 78.9688 20.2656C78.125 19.9115 77.3073 19.5365 76.5156 19.1406C75.724 18.7344 75.0104 18.2656 74.375 17.7344C73.7396 17.2031 73.2344 16.5781 72.8594 15.8594C72.4948 15.1302 72.3125 14.276 72.3125 13.2969C72.3125 12.3385 72.4844 11.4688 72.8281 10.6875C73.1823 9.90625 73.6823 9.23958 74.3281 8.6875C74.974 8.125 75.7292 7.69271 76.5938 7.39062C77.4688 7.08854 78.4427 6.9375 79.5156 6.9375C80.974 6.9375 82.2344 7.23958 83.2969 7.84375C84.3698 8.44792 85.1979 9.27604 85.7812 10.3281C86.375 11.3802 86.6719 12.5885 86.6719 13.9531H82.1094C82.1094 13.3073 82.0156 12.7396 81.8281 12.25C81.651 11.75 81.3646 11.3594 80.9688 11.0781C80.5729 10.7969 80.0625 10.6562 79.4375 10.6562C78.8542 10.6562 78.3698 10.776 77.9844 11.0156C77.6094 11.2448 77.3281 11.5625 77.1406 11.9688C76.9635 12.3646 76.875 12.8125 76.875 13.3125C76.875 13.6875 76.9635 14.026 77.1406 14.3281C77.3281 14.6198 77.5833 14.8854 77.9062 15.125C78.2292 15.3542 78.6094 15.5781 79.0469 15.7969C79.4948 16.0156 79.9844 16.2292 80.5156 16.4375C81.5469 16.8438 82.4583 17.2917 83.25 17.7812C84.0417 18.2604 84.7031 18.8021 85.2344 19.4062C85.7656 20 86.1667 20.6719 86.4375 21.4219C86.7083 22.1719 86.8438 23.026 86.8438 23.9844C86.8438 24.9323 86.6771 25.7969 86.3438 26.5781C86.0208 27.349 85.5469 28.0156 84.9219 28.5781C84.2969 29.1302 83.5417 29.5573 82.6562 29.8594C81.7812 30.1615 80.8021 30.3125 79.7188 30.3125C78.6667 30.3125 77.6719 30.1667 76.7344 29.875C75.7969 29.5729 74.9688 29.1198 74.25 28.5156C73.5417 27.901 72.9844 27.125 72.5781 26.1875C72.1719 25.2396 71.9688 24.1198 71.9688 22.8281H76.5469C76.5469 23.5156 76.6146 24.1042 76.75 24.5938C76.8854 25.0729 77.0938 25.4583 77.375 25.75C77.6562 26.0312 78 26.2448 78.4062 26.3906C78.8229 26.526 79.2969 26.5938 79.8281 26.5938C80.4323 26.5938 80.9115 26.4792 81.2656 26.25C81.6302 26.0208 81.8906 25.7135 82.0469 25.3281C82.2031 24.9427 82.2812 24.5052 82.2812 24.0156ZM90.0781 27.7656C90.0781 27.0781 90.3073 26.5052 90.7656 26.0469C91.224 25.5781 91.8438 25.3438 92.625 25.3438C93.4062 25.3438 94.026 25.5781 94.4844 26.0469C94.9427 26.5052 95.1719 27.0781 95.1719 27.7656C95.1719 28.4531 94.9427 29.026 94.4844 29.4844C94.026 29.9427 93.4062 30.1719 92.625 30.1719C91.8438 30.1719 91.224 29.9427 90.7656 29.4844C90.3073 29.026 90.0781 28.4531 90.0781 27.7656ZM114.703 18.0469V27.4219C114.38 27.7656 113.906 28.1667 113.281 28.625C112.667 29.0729 111.859 29.4688 110.859 29.8125C109.87 30.1458 108.661 30.3125 107.234 30.3125C105.974 30.3125 104.828 30.1146 103.797 29.7188C102.776 29.3229 101.896 28.724 101.156 27.9219C100.427 27.1094 99.8698 26.099 99.4844 24.8906C99.099 23.6719 98.9062 22.2292 98.9062 20.5625V16.6875C98.9062 15.0417 99.0885 13.6094 99.4531 12.3906C99.8281 11.1615 100.37 10.1406 101.078 9.32812C101.786 8.51562 102.63 7.91146 103.609 7.51562C104.599 7.11979 105.714 6.92188 106.953 6.92188C108.661 6.92188 110.062 7.20833 111.156 7.78125C112.26 8.35417 113.094 9.20312 113.656 10.3281C114.229 11.4531 114.573 12.8333 114.688 14.4688H110.266C110.193 13.5104 110.031 12.7604 109.781 12.2188C109.542 11.6771 109.203 11.2917 108.766 11.0625C108.328 10.8229 107.76 10.7031 107.062 10.7031C106.458 10.7031 105.932 10.8125 105.484 11.0312C105.036 11.2396 104.661 11.5833 104.359 12.0625C104.057 12.5417 103.833 13.1562 103.688 13.9062C103.542 14.6562 103.469 15.5729 103.469 16.6562V20.5625C103.469 21.6354 103.552 22.5521 103.719 23.3125C103.885 24.0729 104.13 24.6927 104.453 25.1719C104.786 25.651 105.203 26 105.703 26.2188C106.214 26.4271 106.812 26.5312 107.5 26.5312C108.052 26.5312 108.495 26.474 108.828 26.3594C109.161 26.2448 109.427 26.125 109.625 26C109.833 25.8646 110.005 25.7604 110.141 25.6875V21.5H106.875V18.0469H114.703ZM131.047 26.2188V30H121.156V26.2188H131.047ZM122.578 7.25V30H118V7.25H122.578ZM129.719 16.4688V20.1406H121.156V16.4688H129.719ZM131.016 7.25V11.0469H121.156V7.25H131.016Z"/>
</mask>
<path d="M6.42188 7.25V30H1.84375V7.25H6.42188ZM13.5469 16.9219V20.7031H5.26562V16.9219H13.5469ZM14.4219 7.25V11.0469H5.26562V7.25H14.4219ZM33.0781 16.8594V20.6562C33.0781 22.2604 32.8802 23.6667 32.4844 24.875C32.099 26.0729 31.5469 27.0781 30.8281 27.8906C30.1198 28.6927 29.2604 29.2969 28.25 29.7031C27.25 30.1094 26.1406 30.3125 24.9219 30.3125C23.7031 30.3125 22.5885 30.1094 21.5781 29.7031C20.5781 29.2969 19.7135 28.6927 18.9844 27.8906C18.2656 27.0781 17.7083 26.0729 17.3125 24.875C16.9167 23.6667 16.7188 22.2604 16.7188 20.6562V16.8594C16.7188 15.2135 16.9115 13.776 17.2969 12.5469C17.6823 11.3073 18.2396 10.276 18.9688 9.45312C19.6979 8.61979 20.5625 7.99479 21.5625 7.57812C22.5625 7.15104 23.6719 6.9375 24.8906 6.9375C26.1094 6.9375 27.2188 7.15104 28.2188 7.57812C29.2188 7.99479 30.0833 8.61979 30.8125 9.45312C31.5417 10.276 32.099 11.3073 32.4844 12.5469C32.8802 13.776 33.0781 15.2135 33.0781 16.8594ZM28.5312 20.6562V16.8281C28.5312 15.7448 28.4531 14.8229 28.2969 14.0625C28.1406 13.2917 27.9062 12.6615 27.5938 12.1719C27.2812 11.6823 26.901 11.3229 26.4531 11.0938C26.0052 10.8646 25.4844 10.75 24.8906 10.75C24.2969 10.75 23.7708 10.8646 23.3125 11.0938C22.8646 11.3229 22.4844 11.6823 22.1719 12.1719C21.8698 12.6615 21.6406 13.2917 21.4844 14.0625C21.3385 14.8229 21.2656 15.7448 21.2656 16.8281V20.6562C21.2656 21.6979 21.3438 22.5885 21.5 23.3281C21.6562 24.0677 21.8906 24.6719 22.2031 25.1406C22.5156 25.6094 22.8958 25.9583 23.3438 26.1875C23.8021 26.4062 24.3281 26.5156 24.9219 26.5156C25.5052 26.5156 26.0208 26.4062 26.4688 26.1875C26.9271 25.9583 27.3073 25.6094 27.6094 25.1406C27.9115 24.6719 28.1406 24.0677 28.2969 23.3281C28.4531 22.5885 28.5312 21.6979 28.5312 20.6562ZM52.3125 7.25V30H47.8906L40.75 15.7656V30H36.4062V7.25H40.7656L47.9688 21.6406V7.25H52.3125ZM64.5938 7.25V30H60.0469V7.25H64.5938ZM70.25 7.25V11.0469H54.5V7.25H70.25ZM82.2812 24.0156C82.2812 23.6094 82.2448 23.2396 82.1719 22.9062C82.099 22.5729 81.9427 22.2656 81.7031 21.9844C81.474 21.7031 81.1354 21.4219 80.6875 21.1406C80.25 20.8594 79.6771 20.5677 78.9688 20.2656C78.125 19.9115 77.3073 19.5365 76.5156 19.1406C75.724 18.7344 75.0104 18.2656 74.375 17.7344C73.7396 17.2031 73.2344 16.5781 72.8594 15.8594C72.4948 15.1302 72.3125 14.276 72.3125 13.2969C72.3125 12.3385 72.4844 11.4688 72.8281 10.6875C73.1823 9.90625 73.6823 9.23958 74.3281 8.6875C74.974 8.125 75.7292 7.69271 76.5938 7.39062C77.4688 7.08854 78.4427 6.9375 79.5156 6.9375C80.974 6.9375 82.2344 7.23958 83.2969 7.84375C84.3698 8.44792 85.1979 9.27604 85.7812 10.3281C86.375 11.3802 86.6719 12.5885 86.6719 13.9531H82.1094C82.1094 13.3073 82.0156 12.7396 81.8281 12.25C81.651 11.75 81.3646 11.3594 80.9688 11.0781C80.5729 10.7969 80.0625 10.6562 79.4375 10.6562C78.8542 10.6562 78.3698 10.776 77.9844 11.0156C77.6094 11.2448 77.3281 11.5625 77.1406 11.9688C76.9635 12.3646 76.875 12.8125 76.875 13.3125C76.875 13.6875 76.9635 14.026 77.1406 14.3281C77.3281 14.6198 77.5833 14.8854 77.9062 15.125C78.2292 15.3542 78.6094 15.5781 79.0469 15.7969C79.4948 16.0156 79.9844 16.2292 80.5156 16.4375C81.5469 16.8438 82.4583 17.2917 83.25 17.7812C84.0417 18.2604 84.7031 18.8021 85.2344 19.4062C85.7656 20 86.1667 20.6719 86.4375 21.4219C86.7083 22.1719 86.8438 23.026 86.8438 23.9844C86.8438 24.9323 86.6771 25.7969 86.3438 26.5781C86.0208 27.349 85.5469 28.0156 84.9219 28.5781C84.2969 29.1302 83.5417 29.5573 82.6562 29.8594C81.7812 30.1615 80.8021 30.3125 79.7188 30.3125C78.6667 30.3125 77.6719 30.1667 76.7344 29.875C75.7969 29.5729 74.9688 29.1198 74.25 28.5156C73.5417 27.901 72.9844 27.125 72.5781 26.1875C72.1719 25.2396 71.9688 24.1198 71.9688 22.8281H76.5469C76.5469 23.5156 76.6146 24.1042 76.75 24.5938C76.8854 25.0729 77.0938 25.4583 77.375 25.75C77.6562 26.0312 78 26.2448 78.4062 26.3906C78.8229 26.526 79.2969 26.5938 79.8281 26.5938C80.4323 26.5938 80.9115 26.4792 81.2656 26.25C81.6302 26.0208 81.8906 25.7135 82.0469 25.3281C82.2031 24.9427 82.2812 24.5052 82.2812 24.0156ZM90.0781 27.7656C90.0781 27.0781 90.3073 26.5052 90.7656 26.0469C91.224 25.5781 91.8438 25.3438 92.625 25.3438C93.4062 25.3438 94.026 25.5781 94.4844 26.0469C94.9427 26.5052 95.1719 27.0781 95.1719 27.7656C95.1719 28.4531 94.9427 29.026 94.4844 29.4844C94.026 29.9427 93.4062 30.1719 92.625 30.1719C91.8438 30.1719 91.224 29.9427 90.7656 29.4844C90.3073 29.026 90.0781 28.4531 90.0781 27.7656ZM114.703 18.0469V27.4219C114.38 27.7656 113.906 28.1667 113.281 28.625C112.667 29.0729 111.859 29.4688 110.859 29.8125C109.87 30.1458 108.661 30.3125 107.234 30.3125C105.974 30.3125 104.828 30.1146 103.797 29.7188C102.776 29.3229 101.896 28.724 101.156 27.9219C100.427 27.1094 99.8698 26.099 99.4844 24.8906C99.099 23.6719 98.9062 22.2292 98.9062 20.5625V16.6875C98.9062 15.0417 99.0885 13.6094 99.4531 12.3906C99.8281 11.1615 100.37 10.1406 101.078 9.32812C101.786 8.51562 102.63 7.91146 103.609 7.51562C104.599 7.11979 105.714 6.92188 106.953 6.92188C108.661 6.92188 110.062 7.20833 111.156 7.78125C112.26 8.35417 113.094 9.20312 113.656 10.3281C114.229 11.4531 114.573 12.8333 114.688 14.4688H110.266C110.193 13.5104 110.031 12.7604 109.781 12.2188C109.542 11.6771 109.203 11.2917 108.766 11.0625C108.328 10.8229 107.76 10.7031 107.062 10.7031C106.458 10.7031 105.932 10.8125 105.484 11.0312C105.036 11.2396 104.661 11.5833 104.359 12.0625C104.057 12.5417 103.833 13.1562 103.688 13.9062C103.542 14.6562 103.469 15.5729 103.469 16.6562V20.5625C103.469 21.6354 103.552 22.5521 103.719 23.3125C103.885 24.0729 104.13 24.6927 104.453 25.1719C104.786 25.651 105.203 26 105.703 26.2188C106.214 26.4271 106.812 26.5312 107.5 26.5312C108.052 26.5312 108.495 26.474 108.828 26.3594C109.161 26.2448 109.427 26.125 109.625 26C109.833 25.8646 110.005 25.7604 110.141 25.6875V21.5H106.875V18.0469H114.703ZM131.047 26.2188V30H121.156V26.2188H131.047ZM122.578 7.25V30H118V7.25H122.578ZM129.719 16.4688V20.1406H121.156V16.4688H129.719ZM131.016 7.25V11.0469H121.156V7.25H131.016Z" fill="white"/>
<path d="M6.42188 7.25H8.42188V5.25H6.42188V7.25ZM6.42188 30V32H8.42188V30H6.42188ZM1.84375 30H-0.15625V32H1.84375V30ZM1.84375 7.25V5.25H-0.15625V7.25H1.84375ZM13.5469 16.9219H15.5469V14.9219H13.5469V16.9219ZM13.5469 20.7031V22.7031H15.5469V20.7031H13.5469ZM5.26562 20.7031H3.26562V22.7031H5.26562V20.7031ZM5.26562 16.9219V14.9219H3.26562V16.9219H5.26562ZM14.4219 7.25H16.4219V5.25H14.4219V7.25ZM14.4219 11.0469V13.0469H16.4219V11.0469H14.4219ZM5.26562 11.0469H3.26562V13.0469H5.26562V11.0469ZM5.26562 7.25V5.25H3.26562V7.25H5.26562ZM4.42188 7.25V30H8.42188V7.25H4.42188ZM6.42188 28H1.84375V32H6.42188V28ZM3.84375 30V7.25H-0.15625V30H3.84375ZM1.84375 9.25H6.42188V5.25H1.84375V9.25ZM11.5469 16.9219V20.7031H15.5469V16.9219H11.5469ZM13.5469 18.7031H5.26562V22.7031H13.5469V18.7031ZM7.26562 20.7031V16.9219H3.26562V20.7031H7.26562ZM5.26562 18.9219H13.5469V14.9219H5.26562V18.9219ZM12.4219 7.25V11.0469H16.4219V7.25H12.4219ZM14.4219 9.04688H5.26562V13.0469H14.4219V9.04688ZM7.26562 11.0469V7.25H3.26562V11.0469H7.26562ZM5.26562 9.25H14.4219V5.25H5.26562V9.25ZM32.4844 24.875L30.5837 24.2524L30.5805 24.2624L32.4844 24.875ZM30.8281 27.8906L29.3301 26.5655L29.329 26.5667L30.8281 27.8906ZM28.25 29.7031L27.5039 27.8475L27.4972 27.8502L28.25 29.7031ZM21.5781 29.7031L20.8254 31.5561L20.832 31.5588L21.5781 29.7031ZM18.9844 27.8906L17.4864 29.2158L17.4954 29.2259L17.5045 29.236L18.9844 27.8906ZM17.3125 24.875L15.4119 25.4976L15.4135 25.5025L17.3125 24.875ZM17.2969 12.5469L19.2053 13.1453L19.2067 13.1407L17.2969 12.5469ZM18.9688 9.45312L20.4657 10.7795L20.4739 10.7701L18.9688 9.45312ZM21.5625 7.57812L22.3317 9.42428L22.3399 9.42088L22.348 9.4174L21.5625 7.57812ZM28.2188 7.57812L27.4332 9.4174L27.4414 9.42088L27.4495 9.42428L28.2188 7.57812ZM30.8125 9.45312L29.3073 10.7702L29.3156 10.7795L30.8125 9.45312ZM32.4844 12.5469L30.5746 13.1407L30.5776 13.1503L30.5807 13.1599L32.4844 12.5469ZM28.2969 14.0625L26.3367 14.4598L26.3378 14.465L28.2969 14.0625ZM23.3125 11.0938L22.4181 9.3049L22.4098 9.30904L22.4015 9.31325L23.3125 11.0938ZM22.1719 12.1719L20.486 11.0958L20.4778 11.1087L20.4698 11.1217L22.1719 12.1719ZM21.4844 14.0625L19.5242 13.6652L19.5222 13.6755L19.5202 13.6858L21.4844 14.0625ZM23.3438 26.1875L22.4328 27.968L22.4574 27.9806L22.4823 27.9925L23.3438 26.1875ZM26.4688 26.1875L27.3464 27.9846L27.3548 27.9805L27.3632 27.9764L26.4688 26.1875ZM31.0781 16.8594V20.6562H35.0781V16.8594H31.0781ZM31.0781 20.6562C31.0781 22.1017 30.8991 23.2897 30.5838 24.2524L34.385 25.4976C34.8613 24.0437 35.0781 22.4192 35.0781 20.6562H31.0781ZM30.5805 24.2624C30.2663 25.2391 29.8388 25.9904 29.3301 26.5655L32.3261 29.2158C33.2549 28.1658 33.9316 26.9068 34.3883 25.4876L30.5805 24.2624ZM29.329 26.5667C28.8306 27.1311 28.2307 27.5553 27.5039 27.8475L28.9961 31.5588C30.2902 31.0384 31.409 30.2543 32.3272 29.2145L29.329 26.5667ZM27.4972 27.8502C26.7652 28.1476 25.9157 28.3125 24.9219 28.3125V32.3125C26.3655 32.3125 27.7348 32.0712 29.0028 31.5561L27.4972 27.8502ZM24.9219 28.3125C23.9284 28.3125 23.0708 28.1477 22.3242 27.8475L20.832 31.5588C22.1063 32.0711 23.4779 32.3125 24.9219 32.3125V28.3125ZM22.3309 27.8502C21.6094 27.5571 20.993 27.1269 20.4643 26.5453L17.5045 29.236C18.4341 30.2585 19.5468 31.0367 20.8254 31.5561L22.3309 27.8502ZM20.4824 26.5655C19.97 25.9863 19.536 25.2296 19.2115 24.2475L15.4135 25.5025C15.8806 26.9162 16.5612 28.1699 17.4864 29.2158L20.4824 26.5655ZM19.2131 24.2524C18.8977 23.2897 18.7188 22.1017 18.7188 20.6562H14.7188C14.7188 22.4192 14.9356 24.0437 15.4119 25.4976L19.2131 24.2524ZM18.7188 20.6562V16.8594H14.7188V20.6562H18.7188ZM18.7188 16.8594C18.7188 15.3631 18.8947 14.1357 19.2053 13.1453L15.3885 11.9485C14.9282 13.4164 14.7188 15.064 14.7188 16.8594H18.7188ZM19.2067 13.1407C19.523 12.1235 19.9554 11.3554 20.4657 10.7795L17.4718 8.12675C16.5238 9.19669 15.8416 10.4911 15.3871 11.9531L19.2067 13.1407ZM20.4739 10.7701C21.0061 10.1619 21.6207 9.72054 22.3317 9.42428L20.7933 5.73197C19.5043 6.26904 18.3897 7.07768 17.4636 8.13612L20.4739 10.7701ZM22.348 9.4174C23.0714 9.10847 23.9093 8.9375 24.8906 8.9375V4.9375C23.4345 4.9375 22.0536 5.19361 20.777 5.73885L22.348 9.4174ZM24.8906 8.9375C25.872 8.9375 26.7099 9.10847 27.4332 9.4174L29.0043 5.73885C27.7276 5.19361 26.3468 4.9375 24.8906 4.9375V8.9375ZM27.4495 9.42428C28.1605 9.72054 28.7751 10.1619 29.3073 10.7701L32.3177 8.13612C31.3915 7.07768 30.277 6.26904 28.988 5.73197L27.4495 9.42428ZM29.3156 10.7795C29.8259 11.3554 30.2583 12.1235 30.5746 13.1407L34.3942 11.9531C33.9396 10.4911 33.2575 9.19669 32.3094 8.12675L29.3156 10.7795ZM30.5807 13.1599C30.898 14.1452 31.0781 15.3674 31.0781 16.8594H35.0781C35.0781 15.0597 34.8625 13.4068 34.3881 11.9338L30.5807 13.1599ZM30.5312 20.6562V16.8281H26.5312V20.6562H30.5312ZM30.5312 16.8281C30.5312 15.6583 30.4477 14.5933 30.2559 13.66L26.3378 14.465C26.4585 15.0526 26.5312 15.8313 26.5312 16.8281H30.5312ZM30.257 13.6652C30.0681 12.7332 29.7623 11.852 29.2796 11.0958L25.9079 13.2479C26.0502 13.4709 26.2132 13.8502 26.3367 14.4598L30.257 13.6652ZM29.2796 11.0958C28.8059 10.3536 28.1744 9.72782 27.3641 9.31325L25.5422 12.8742C25.6277 12.918 25.7566 13.0109 25.9079 13.2479L29.2796 11.0958ZM27.3641 9.31325C26.5876 8.91598 25.7443 8.75 24.8906 8.75V12.75C25.2245 12.75 25.4228 12.8132 25.5422 12.8742L27.3641 9.31325ZM24.8906 8.75C24.0357 8.75 23.1951 8.91639 22.4181 9.3049L24.2069 12.8826C24.3466 12.8128 24.5581 12.75 24.8906 12.75V8.75ZM22.4015 9.31325C21.5913 9.72782 20.9597 10.3536 20.486 11.0958L23.8577 13.2479C24.009 13.0109 24.1379 12.918 24.2235 12.8742L22.4015 9.31325ZM20.4698 11.1217C20.0076 11.8707 19.7113 12.7423 19.5242 13.6652L23.4445 14.4598C23.5699 13.8411 23.732 13.4522 23.8739 13.2221L20.4698 11.1217ZM19.5202 13.6858C19.3432 14.6085 19.2656 15.6642 19.2656 16.8281H23.2656C23.2656 15.8253 23.3339 15.0373 23.4486 14.4392L19.5202 13.6858ZM19.2656 16.8281V20.6562H23.2656V16.8281H19.2656ZM19.2656 20.6562C19.2656 21.7888 19.3498 22.8259 19.5432 23.7415L23.4568 22.9147C23.3377 22.3512 23.2656 21.6071 23.2656 20.6562H19.2656ZM19.5432 23.7415C19.7351 24.6497 20.0465 25.5112 20.539 26.25L23.8672 24.0312C23.7348 23.8325 23.5774 23.4858 23.4568 22.9147L19.5432 23.7415ZM20.539 26.25C21.018 26.9685 21.6455 27.5652 22.4328 27.968L24.2547 24.407C24.1461 24.3515 24.0133 24.2503 23.8672 24.0312L20.539 26.25ZM22.4823 27.9925C23.2515 28.3596 24.0802 28.5156 24.9219 28.5156V24.5156C24.5761 24.5156 24.3527 24.4529 24.2052 24.3825L22.4823 27.9925ZM24.9219 28.5156C25.7578 28.5156 26.5823 28.3578 27.3464 27.9846L25.5911 24.3904C25.4593 24.4547 25.2526 24.5156 24.9219 24.5156V28.5156ZM27.3632 27.9764C28.1703 27.5728 28.8119 26.9667 29.2905 26.224L25.9282 24.0572C25.8027 24.252 25.6839 24.3439 25.5743 24.3986L27.3632 27.9764ZM29.2905 26.224C29.7622 25.492 30.0638 24.6401 30.2537 23.7415L26.3401 22.9147C26.2174 23.4953 26.0607 23.8517 25.9282 24.0572L29.2905 26.224ZM30.2537 23.7415C30.4471 22.8259 30.5312 21.7888 30.5312 20.6562H26.5312C26.5312 21.6071 26.4591 22.3512 26.3401 22.9147L30.2537 23.7415ZM52.3125 7.25H54.3125V5.25H52.3125V7.25ZM52.3125 30V32H54.3125V30H52.3125ZM47.8906 30L46.1029 30.8968L46.6564 32H47.8906V30ZM40.75 15.7656L42.5377 14.8688L38.75 15.7656H40.75ZM40.75 30V32H42.75V30H40.75ZM36.4062 30H34.4062V32H36.4062V30ZM36.4062 7.25V5.25H34.4062V7.25H36.4062ZM40.7656 7.25L42.5541 6.3548L42.0011 5.25H40.7656V7.25ZM47.9688 21.6406L46.1803 22.5358L49.9688 21.6406H47.9688ZM47.9688 7.25V5.25H45.9688V7.25H47.9688ZM50.3125 7.25V30H54.3125V7.25H50.3125ZM52.3125 28H47.8906V32H52.3125V28ZM49.6783 29.1032L42.5377 14.8688L38.9623 16.6624L46.1029 30.8968L49.6783 29.1032ZM38.75 15.7656V30H42.75V15.7656H38.75ZM40.75 28H36.4062V32H40.75V28ZM38.4062 30V7.25H34.4062V30H38.4062ZM36.4062 9.25H40.7656V5.25H36.4062V9.25ZM38.9772 8.1452L46.1803 22.5358L49.7572 20.7454L42.5541 6.3548L38.9772 8.1452ZM49.9688 21.6406V7.25H45.9688V21.6406H49.9688ZM47.9688 9.25H52.3125V5.25H47.9688V9.25ZM64.5938 7.25H66.5938V5.25H64.5938V7.25ZM64.5938 30V32H66.5938V30H64.5938ZM60.0469 30H58.0469V32H60.0469V30ZM60.0469 7.25V5.25H58.0469V7.25H60.0469ZM70.25 7.25H72.25V5.25H70.25V7.25ZM70.25 11.0469V13.0469H72.25V11.0469H70.25ZM54.5 11.0469H52.5V13.0469H54.5V11.0469ZM54.5 7.25V5.25H52.5V7.25H54.5ZM62.5938 7.25V30H66.5938V7.25H62.5938ZM64.5938 28H60.0469V32H64.5938V28ZM62.0469 30V7.25H58.0469V30H62.0469ZM60.0469 9.25H64.5938V5.25H60.0469V9.25ZM68.25 7.25V11.0469H72.25V7.25H68.25ZM70.25 9.04688H54.5V13.0469H70.25V9.04688ZM56.5 11.0469V7.25H52.5V11.0469H56.5ZM54.5 9.25H70.25V5.25H54.5V9.25ZM81.7031 21.9844L80.1527 23.2477L80.1665 23.2647L80.1806 23.2813L81.7031 21.9844ZM80.6875 21.1406L79.606 22.823L79.6149 22.8287L79.624 22.8344L80.6875 21.1406ZM78.9688 20.2656L79.7533 18.4259L79.7428 18.4215L78.9688 20.2656ZM76.5156 19.1406L75.6025 20.92L75.6118 20.9248L75.6212 20.9295L76.5156 19.1406ZM74.375 17.7344L73.0922 19.2688L74.375 17.7344ZM72.8594 15.8594L71.0705 16.7538L71.0782 16.7692L71.0862 16.7845L72.8594 15.8594ZM72.8281 10.6875L71.0066 9.86172L71.002 9.87185L70.9975 9.88202L72.8281 10.6875ZM74.3281 8.6875L75.6277 10.2077L75.6347 10.2017L75.6417 10.1957L74.3281 8.6875ZM76.5938 7.39062L75.9411 5.50011L75.9341 5.50255L76.5938 7.39062ZM83.2969 7.84375L82.3083 9.58235L82.3155 9.58645L83.2969 7.84375ZM85.7812 10.3281L84.0321 11.2979L84.0358 11.3045L84.0395 11.3111L85.7812 10.3281ZM86.6719 13.9531V15.9531H88.6719V13.9531H86.6719ZM82.1094 13.9531H80.1094V15.9531H82.1094V13.9531ZM81.8281 12.25L79.9429 12.9177L79.9513 12.9416L79.9604 12.9653L81.8281 12.25ZM77.9844 11.0156L79.0273 12.7222L79.0338 12.7182L79.0402 12.7142L77.9844 11.0156ZM77.1406 11.9688L75.3247 11.1306L75.3198 11.1413L75.315 11.152L77.1406 11.9688ZM77.1406 14.3281L75.4152 15.3396L75.436 15.375L75.4583 15.4096L77.1406 14.3281ZM77.9062 15.125L76.7146 16.7312L76.7315 16.7438L76.7488 16.756L77.9062 15.125ZM79.0469 15.7969L78.1524 17.5857L78.1608 17.5899L78.1692 17.594L79.0469 15.7969ZM80.5156 16.4375L81.2487 14.5767L81.2458 14.5756L80.5156 16.4375ZM83.25 17.7812L82.1981 19.4823L82.2062 19.4873L82.2144 19.4923L83.25 17.7812ZM85.2344 19.4062L83.7324 20.7269L83.7381 20.7334L83.7439 20.7398L85.2344 19.4062ZM86.3438 26.5781L84.5042 25.7932L84.4991 25.8054L86.3438 26.5781ZM84.9219 28.5781L86.2459 30.0771L86.2529 30.0709L86.2598 30.0647L84.9219 28.5781ZM82.6562 29.8594L82.0104 27.9665L82.0036 27.9689L82.6562 29.8594ZM76.7344 29.875L76.121 31.7786L76.1306 31.7817L76.1402 31.7847L76.7344 29.875ZM74.25 28.5156L72.9393 30.0263L72.9511 30.0365L72.9631 30.0466L74.25 28.5156ZM72.5781 26.1875L70.7398 26.9753L70.743 26.9827L72.5781 26.1875ZM71.9688 22.8281V20.8281H69.9688V22.8281H71.9688ZM76.5469 22.8281H78.5469V20.8281H76.5469V22.8281ZM76.75 24.5938L74.8223 25.1269L74.8254 25.1377L76.75 24.5938ZM77.375 25.75L75.9353 27.1383L75.9479 27.1514L75.9608 27.1642L77.375 25.75ZM78.4062 26.3906L77.7305 28.273L77.7591 28.2833L77.7881 28.2927L78.4062 26.3906ZM81.2656 26.25L80.2013 24.5567L80.1902 24.5637L80.1791 24.5709L81.2656 26.25ZM84.2812 24.0156C84.2812 23.492 84.2345 22.9762 84.1257 22.4789L80.2181 23.3336C80.2551 23.503 80.2812 23.7268 80.2812 24.0156H84.2812ZM84.1257 22.4789C83.9768 21.7985 83.6601 21.1975 83.2256 20.6874L80.1806 23.2813C80.2059 23.311 80.2151 23.3282 80.2172 23.3323C80.2185 23.3347 80.2187 23.3354 80.2184 23.3348C80.2182 23.3341 80.2181 23.3336 80.2181 23.3336L84.1257 22.4789ZM83.2536 20.721C82.8392 20.2125 82.3069 19.7959 81.751 19.4468L79.624 22.8344C79.9639 23.0478 80.1087 23.1938 80.1527 23.2477L83.2536 20.721ZM81.769 19.4583C81.2039 19.095 80.5208 18.7532 79.7533 18.4259L78.1842 22.1053C78.8334 22.3822 79.2961 22.6238 79.606 22.823L81.769 19.4583ZM79.7428 18.4215C78.9384 18.0838 78.1609 17.7272 77.4101 17.3518L75.6212 20.9295C76.4537 21.3457 77.3116 21.7391 78.1947 22.1098L79.7428 18.4215ZM77.4287 17.3612C76.7593 17.0177 76.1714 16.6294 75.6578 16.2L73.0922 19.2688C73.8494 19.9019 74.6886 20.451 75.6025 20.92L77.4287 17.3612ZM75.6578 16.2C75.2199 15.8338 74.8831 15.4145 74.6325 14.9342L71.0862 16.7845C71.5856 17.7417 72.2593 18.5724 73.0922 19.2688L75.6578 16.2ZM74.6482 14.9649C74.4477 14.5639 74.3125 14.0273 74.3125 13.2969H70.3125C70.3125 14.5248 70.5419 15.6965 71.0705 16.7538L74.6482 14.9649ZM74.3125 13.2969C74.3125 12.5818 74.4397 11.9909 74.6588 11.493L70.9975 9.88202C70.5291 10.9466 70.3125 12.0953 70.3125 13.2969H74.3125ZM74.6497 11.5133C74.884 10.9963 75.2068 10.5675 75.6277 10.2077L73.0286 7.16726C72.1577 7.91166 71.4805 8.81618 71.0066 9.86172L74.6497 11.5133ZM75.6417 10.1957C76.0827 9.81154 76.6122 9.50275 77.2534 9.2787L75.9341 5.50255C74.8462 5.88266 73.8652 6.43846 73.0146 7.17934L75.6417 10.1957ZM77.2464 9.28113C77.881 9.06204 78.6302 8.9375 79.5156 8.9375V4.9375C78.2552 4.9375 77.0565 5.11504 75.9411 5.50012L77.2464 9.28113ZM79.5156 8.9375C80.6944 8.9375 81.6005 9.17984 82.3083 9.58233L84.2855 6.10517C82.8683 5.29932 81.2535 4.9375 79.5156 4.9375V8.9375ZM82.3155 9.58645C83.0739 10.0135 83.6327 10.5775 84.0321 11.2979L87.5304 9.35831C86.7632 7.97457 85.6656 6.88232 84.2782 6.10105L82.3155 9.58645ZM84.0395 11.3111C84.443 12.026 84.6719 12.8876 84.6719 13.9531H88.6719C88.6719 12.2895 88.307 10.7344 87.523 9.34515L84.0395 11.3111ZM86.6719 11.9531H82.1094V15.9531H86.6719V11.9531ZM84.1094 13.9531C84.1094 13.1176 83.9885 12.2988 83.6958 11.5347L79.9604 12.9653C80.0428 13.1804 80.1094 13.497 80.1094 13.9531H84.1094ZM83.7134 11.5823C83.4122 10.7319 82.8897 9.98957 82.1272 9.44776L79.8103 12.7085C79.8395 12.7292 79.8899 12.7681 79.9429 12.9177L83.7134 11.5823ZM82.1272 9.44776C81.3073 8.86524 80.3586 8.65625 79.4375 8.65625V12.6562C79.7664 12.6562 79.8385 12.7285 79.8103 12.7085L82.1272 9.44776ZM79.4375 8.65625C78.586 8.65625 77.7095 8.83155 76.9285 9.31705L79.0402 12.7142C79.0403 12.7141 79.0414 12.7135 79.0438 12.7123C79.0461 12.7111 79.05 12.7092 79.0557 12.7068C79.067 12.7022 79.0867 12.6951 79.1169 12.6876C79.1782 12.6724 79.2812 12.6562 79.4375 12.6562V8.65625ZM76.9415 9.30906C76.222 9.74872 75.675 10.3717 75.3247 11.1306L78.9565 12.8069C78.973 12.7712 78.9853 12.7564 78.9897 12.7515C78.9939 12.7467 79.0033 12.7368 79.0273 12.7222L76.9415 9.30906ZM75.315 11.152C75.0067 11.8412 74.875 12.5739 74.875 13.3125H78.875C78.875 13.0511 78.9204 12.888 78.9663 12.7855L75.315 11.152ZM74.875 13.3125C74.875 14.0169 75.0456 14.709 75.4152 15.3396L78.866 13.3167C78.8676 13.3193 78.8697 13.3234 78.8719 13.3287C78.8741 13.3339 78.8755 13.3385 78.8763 13.3416C78.8771 13.3447 78.8769 13.3446 78.8764 13.3406C78.8759 13.3366 78.875 13.3274 78.875 13.3125H74.875ZM75.4583 15.4096C75.7954 15.934 76.2282 16.3704 76.7146 16.7312L79.0979 13.5188C78.9384 13.4005 78.8609 13.3056 78.823 13.2466L75.4583 15.4096ZM76.7488 16.756C77.1719 17.0563 77.6437 17.3314 78.1524 17.5857L79.9413 14.008C79.575 13.8249 79.2864 13.652 79.0637 13.494L76.7488 16.756ZM78.1692 17.594C78.6717 17.8394 79.2112 18.0742 79.7854 18.2994L81.2458 14.5756C80.7576 14.3841 80.3179 14.1918 79.9245 13.9997L78.1692 17.594ZM79.7826 18.2983C80.7232 18.6689 81.5247 19.0658 82.1981 19.4823L84.3019 16.0802C83.392 15.5175 82.3705 15.0186 81.2487 14.5767L79.7826 18.2983ZM82.2144 19.4923C82.8573 19.8814 83.3543 20.2969 83.7324 20.7269L86.7363 18.0856C86.0519 17.3073 85.226 16.6395 84.2856 16.0702L82.2144 19.4923ZM83.7439 20.7398C84.1041 21.1424 84.3726 21.5921 84.5564 22.1012L88.3186 20.7426C87.9608 19.7517 87.4272 18.8576 86.7249 18.0727L83.7439 20.7398ZM84.5564 22.1012C84.7345 22.5944 84.8438 23.2122 84.8438 23.9844H88.8438C88.8438 22.8399 88.6822 21.7494 88.3186 20.7426L84.5564 22.1012ZM84.8438 23.9844C84.8438 24.6939 84.72 25.2874 84.5042 25.7932L88.1833 27.363C88.6341 26.3063 88.8438 25.1707 88.8438 23.9844H84.8438ZM84.4991 25.8054C84.291 26.302 83.9908 26.7254 83.5839 27.0915L86.2598 30.0647C87.103 29.3059 87.7507 28.3959 88.1884 27.3509L84.4991 25.8054ZM83.5978 27.0792C83.1934 27.4364 82.6764 27.7393 82.0104 27.9665L83.3021 31.7522C84.4069 31.3753 85.4003 30.824 86.2459 30.0771L83.5978 27.0792ZM82.0036 27.9689C81.3709 28.1873 80.6169 28.3125 79.7188 28.3125V32.3125C80.9872 32.3125 82.1916 32.1356 83.3089 31.7499L82.0036 27.9689ZM79.7188 28.3125C78.8537 28.3125 78.0604 28.193 77.3285 27.9653L76.1402 31.7847C77.2834 32.1404 78.4796 32.3125 79.7188 32.3125V28.3125ZM77.3478 27.9714C76.6445 27.7448 76.0478 27.4141 75.5369 26.9847L72.9631 30.0466C73.8897 30.8255 74.9492 31.4011 76.121 31.7786L77.3478 27.9714ZM75.5607 27.005C75.0982 26.6037 74.7113 26.08 74.4132 25.3923L70.743 26.9827C71.2575 28.17 71.9851 29.1984 72.9393 30.0263L75.5607 27.005ZM74.4164 25.3997C74.1401 24.755 73.9688 23.9151 73.9688 22.8281H69.9688C69.9688 24.3245 70.2036 25.7241 70.7398 26.9753L74.4164 25.3997ZM71.9688 24.8281H76.5469V20.8281H71.9688V24.8281ZM74.5469 22.8281C74.5469 23.6368 74.6254 24.4148 74.8224 25.1269L78.6776 24.0606C78.6038 23.7935 78.5469 23.3944 78.5469 22.8281H74.5469ZM74.8254 25.1377C75.0302 25.8623 75.3787 26.561 75.9353 27.1383L78.8147 24.3617C78.8088 24.3556 78.7407 24.2836 78.6746 24.0498L74.8254 25.1377ZM75.9608 27.1642C76.468 27.6714 77.0706 28.0361 77.7305 28.273L79.082 24.5082C78.9294 24.4535 78.8445 24.3911 78.7892 24.3358L75.9608 27.1642ZM77.7881 28.2927C78.4416 28.5051 79.13 28.5938 79.8281 28.5938V24.5938C79.4637 24.5938 79.2042 24.547 79.0244 24.4886L77.7881 28.2927ZM79.8281 28.5938C80.6592 28.5938 81.5628 28.4399 82.3521 27.9291L80.1791 24.5709C80.2216 24.5434 80.2306 24.5495 80.1755 24.5627C80.118 24.5764 80.0074 24.5938 79.8281 24.5938V28.5938ZM82.33 27.9433C83.0365 27.4992 83.5805 26.8684 83.9004 26.0795L80.1934 24.5767C80.1924 24.5792 80.1931 24.577 80.1963 24.5717C80.1996 24.5663 80.2038 24.5603 80.2086 24.5546C80.2108 24.5519 80.2128 24.5498 80.2144 24.5482C80.2152 24.5475 80.2158 24.5469 80.2162 24.5465C80.2167 24.546 80.2169 24.5459 80.2169 24.5459C80.2169 24.5459 80.2166 24.5461 80.2161 24.5465C80.2155 24.547 80.2146 24.5477 80.2134 24.5486C80.2109 24.5504 80.207 24.5531 80.2013 24.5567L82.33 27.9433ZM83.9004 26.0795C84.1689 25.4171 84.2812 24.7179 84.2812 24.0156H80.2812C80.2812 24.2925 80.2373 24.4683 80.1934 24.5767L83.9004 26.0795ZM90.7656 26.0469L92.1798 27.4611L92.1878 27.4531L92.1956 27.4451L90.7656 26.0469ZM94.4844 26.0469L93.0544 27.4451L93.0622 27.4531L93.0702 27.4611L94.4844 26.0469ZM92.0781 27.7656C92.0781 27.5728 92.1211 27.5198 92.1798 27.4611L89.3514 24.6327C88.4935 25.4906 88.0781 26.5834 88.0781 27.7656H92.0781ZM92.1956 27.4451C92.2066 27.4339 92.2709 27.3438 92.625 27.3438V23.3438C91.4166 23.3438 90.2414 23.7223 89.3356 24.6486L92.1956 27.4451ZM92.625 27.3438C92.9791 27.3438 93.0434 27.4339 93.0544 27.4451L95.9144 24.6486C95.0086 23.7223 93.8334 23.3438 92.625 23.3438V27.3438ZM93.0702 27.4611C93.1289 27.5198 93.1719 27.5728 93.1719 27.7656H97.1719C97.1719 26.5834 96.7565 25.4906 95.8986 24.6327L93.0702 27.4611ZM93.1719 27.7656C93.1719 27.9584 93.1289 28.0114 93.0702 28.0702L95.8986 30.8986C96.7565 30.0407 97.1719 28.9478 97.1719 27.7656H93.1719ZM93.0702 28.0702C93.0619 28.0784 92.9922 28.1719 92.625 28.1719V32.1719C93.8203 32.1719 94.9902 31.807 95.8986 30.8986L93.0702 28.0702ZM92.625 28.1719C92.2578 28.1719 92.1881 28.0784 92.1798 28.0702L89.3514 30.8986C90.2598 31.807 91.4297 32.1719 92.625 32.1719V28.1719ZM92.1798 28.0702C92.1211 28.0114 92.0781 27.9584 92.0781 27.7656H88.0781C88.0781 28.9478 88.4935 30.0407 89.3514 30.8986L92.1798 28.0702ZM114.703 18.0469H116.703V16.0469H114.703V18.0469ZM114.703 27.4219L116.161 28.7912L116.703 28.2139V27.4219H114.703ZM113.281 28.625L114.459 30.2413L114.464 30.2378L113.281 28.625ZM110.859 29.8125L111.498 31.7079L111.51 31.7039L110.859 29.8125ZM103.797 29.7188L103.074 31.5835L103.08 31.5859L103.797 29.7188ZM101.156 27.9219L99.6678 29.2577L99.6768 29.2677L99.6859 29.2776L101.156 27.9219ZM99.4844 24.8906L97.5775 25.4937L97.579 25.4984L99.4844 24.8906ZM99.4531 12.3906L97.5401 11.807L97.537 11.8174L99.4531 12.3906ZM103.609 7.51562L102.867 5.65866L102.86 5.6614L103.609 7.51562ZM111.156 7.78125L110.228 9.55293L110.235 9.55651L111.156 7.78125ZM113.656 10.3281L111.867 11.2226L111.871 11.2292L111.874 11.2357L113.656 10.3281ZM114.688 14.4688V16.4688H116.833L116.683 14.329L114.688 14.4688ZM110.266 14.4688L108.271 14.6205L108.412 16.4688H110.266V14.4688ZM109.781 12.2188L107.952 13.0278L107.959 13.0424L107.965 13.0569L109.781 12.2188ZM108.766 11.0625L107.805 12.8167L107.821 12.8256L107.838 12.8342L108.766 11.0625ZM105.484 11.0312L106.328 12.8447L106.345 12.8367L106.362 12.8284L105.484 11.0312ZM104.453 25.1719L102.795 26.2896L102.803 26.3019L102.811 26.314L104.453 25.1719ZM105.703 26.2188L104.901 28.0511L104.924 28.061L104.947 28.0704L105.703 26.2188ZM109.625 26L110.693 27.691L110.704 27.684L110.715 27.6769L109.625 26ZM110.141 25.6875L111.089 27.4484L112.141 26.8821V25.6875H110.141ZM110.141 21.5H112.141V19.5H110.141V21.5ZM106.875 21.5H104.875V23.5H106.875V21.5ZM106.875 18.0469V16.0469H104.875V18.0469H106.875ZM112.703 18.0469V27.4219H116.703V18.0469H112.703ZM113.245 26.0525C113.043 26.2684 112.679 26.5866 112.099 27.0122L114.464 30.2378C115.134 29.7468 115.718 29.2629 116.161 28.7912L113.245 26.0525ZM112.103 27.0087C111.699 27.3033 111.088 27.6189 110.209 27.9211L111.51 31.7039C112.63 31.3186 113.634 30.8426 114.459 30.2413L112.103 27.0087ZM110.221 27.9171C109.497 28.161 108.518 28.3125 107.234 28.3125V32.3125C108.805 32.3125 110.243 32.1307 111.498 31.7079L110.221 27.9171ZM107.234 28.3125C106.185 28.3125 105.286 28.1481 104.514 27.8516L103.08 31.5859C104.37 32.081 105.763 32.3125 107.234 32.3125V28.3125ZM104.52 27.854C103.783 27.5682 103.158 27.1429 102.627 26.5661L99.6859 29.2776C100.633 30.305 101.769 31.0777 103.074 31.5835L104.52 27.854ZM102.645 26.5861C102.133 26.0154 101.703 25.265 101.39 24.2829L97.579 25.4984C98.0365 26.9329 98.7216 28.2034 99.6678 29.2577L102.645 26.5861ZM101.391 24.2876C101.083 23.3128 100.906 22.0831 100.906 20.5625H96.9062C96.9062 22.3752 97.1149 24.0309 97.5775 25.4937L101.391 24.2876ZM100.906 20.5625V16.6875H96.9062V20.5625H100.906ZM100.906 16.6875C100.906 15.182 101.074 13.9513 101.369 12.9638L97.537 11.8174C97.1033 13.2675 96.9062 14.9013 96.9062 16.6875H100.906ZM101.366 12.9742C101.674 11.9635 102.094 11.2058 102.586 10.6424L99.5706 8.01385C98.6451 9.07545 97.9818 10.3594 97.5402 11.807L101.366 12.9742ZM102.586 10.6424C103.092 10.0619 103.678 9.6453 104.359 9.36985L102.86 5.6614C101.583 6.17761 100.481 6.96934 99.5706 8.01385L102.586 10.6424ZM104.352 9.37258C105.07 9.08533 105.927 8.92188 106.953 8.92188V4.92188C105.5 4.92188 104.128 5.15425 102.867 5.65867L104.352 9.37258ZM106.953 8.92188C108.456 8.92188 109.509 9.17635 110.228 9.55291L112.084 6.00959C110.616 5.24032 108.867 4.92188 106.953 4.92188V8.92188ZM110.235 9.55651C110.96 9.93252 111.492 10.4709 111.867 11.2226L115.445 9.4337C114.696 7.93533 113.561 6.77581 112.077 6.00599L110.235 9.55651ZM111.874 11.2357C112.295 12.0618 112.591 13.1644 112.692 14.6085L116.683 14.329C116.555 12.5022 116.164 10.8444 115.438 9.42052L111.874 11.2357ZM114.688 12.4688H110.266V16.4688H114.688V12.4688ZM112.26 14.317C112.179 13.2482 111.989 12.2301 111.597 11.3806L107.965 13.0569C108.073 13.2907 108.207 13.7726 108.271 14.6205L112.26 14.317ZM111.61 11.4097C111.226 10.5399 110.607 9.76937 109.694 9.29084L107.838 12.8342C107.83 12.8303 107.832 12.828 107.845 12.8433C107.861 12.8618 107.902 12.9147 107.952 13.0278L111.61 11.4097ZM109.726 9.30831C108.9 8.85589 107.969 8.70312 107.062 8.70312V12.7031C107.551 12.7031 107.756 12.7899 107.805 12.8167L109.726 9.30831ZM107.062 8.70312C106.218 8.70312 105.38 8.85655 104.607 9.23411L106.362 12.8284C106.485 12.7684 106.699 12.7031 107.062 12.7031V8.70312ZM104.641 9.21781C103.795 9.61112 103.144 10.2403 102.668 10.9959L106.051 13.1291C106.179 12.9263 106.278 12.868 106.328 12.8447L104.641 9.21781ZM102.668 10.9959C102.196 11.7437 101.902 12.611 101.724 13.5245L105.651 14.288C105.765 13.7015 105.918 13.3396 106.051 13.1291L102.668 10.9959ZM101.724 13.5245C101.546 14.4403 101.469 15.4932 101.469 16.6562H105.469C105.469 15.6526 105.537 14.8722 105.651 14.288L101.724 13.5245ZM101.469 16.6562V20.5625H105.469V16.6562H101.469ZM101.469 20.5625C101.469 21.7295 101.559 22.7981 101.765 23.7407L105.672 22.8843C105.546 22.3061 105.469 21.5413 105.469 20.5625H101.469ZM101.765 23.7407C101.968 24.6671 102.291 25.5424 102.795 26.2896L106.112 24.0542C105.969 23.843 105.803 23.4787 105.672 22.8843L101.765 23.7407ZM102.811 26.314C103.34 27.0745 104.039 27.6739 104.901 28.0511L106.505 24.3864C106.367 24.3261 106.233 24.2276 106.095 24.0297L102.811 26.314ZM104.947 28.0704C105.749 28.3976 106.615 28.5312 107.5 28.5312V24.5312C107.01 24.5312 106.678 24.4565 106.459 24.3671L104.947 28.0704ZM107.5 28.5312C108.163 28.5312 108.852 28.4661 109.478 28.2507L108.178 24.468C108.138 24.4819 107.941 24.5312 107.5 24.5312V28.5312ZM109.478 28.2507C109.892 28.1084 110.316 27.9291 110.693 27.691L108.557 24.309C108.538 24.3209 108.431 24.3812 108.178 24.468L109.478 28.2507ZM110.715 27.6769C110.902 27.5556 111.022 27.4845 111.089 27.4484L109.192 23.9266C108.988 24.0364 108.765 24.1735 108.535 24.3231L110.715 27.6769ZM112.141 25.6875V21.5H108.141V25.6875H112.141ZM110.141 19.5H106.875V23.5H110.141V19.5ZM108.875 21.5V18.0469H104.875V21.5H108.875ZM106.875 20.0469H114.703V16.0469H106.875V20.0469ZM131.047 26.2188H133.047V24.2188H131.047V26.2188ZM131.047 30V32H133.047V30H131.047ZM121.156 30H119.156V32H121.156V30ZM121.156 26.2188V24.2188H119.156V26.2188H121.156ZM122.578 7.25H124.578V5.25H122.578V7.25ZM122.578 30V32H124.578V30H122.578ZM118 30H116V32H118V30ZM118 7.25V5.25H116V7.25H118ZM129.719 16.4688H131.719V14.4688H129.719V16.4688ZM129.719 20.1406V22.1406H131.719V20.1406H129.719ZM121.156 20.1406H119.156V22.1406H121.156V20.1406ZM121.156 16.4688V14.4688H119.156V16.4688H121.156ZM131.016 7.25H133.016V5.25H131.016V7.25ZM131.016 11.0469V13.0469H133.016V11.0469H131.016ZM121.156 11.0469H119.156V13.0469H121.156V11.0469ZM121.156 7.25V5.25H119.156V7.25H121.156ZM129.047 26.2188V30H133.047V26.2188H129.047ZM131.047 28H121.156V32H131.047V28ZM123.156 30V26.2188H119.156V30H123.156ZM121.156 28.2188H131.047V24.2188H121.156V28.2188ZM120.578 7.25V30H124.578V7.25H120.578ZM122.578 28H118V32H122.578V28ZM120 30V7.25H116V30H120ZM118 9.25H122.578V5.25H118V9.25ZM127.719 16.4688V20.1406H131.719V16.4688H127.719ZM129.719 18.1406H121.156V22.1406H129.719V18.1406ZM123.156 20.1406V16.4688H119.156V20.1406H123.156ZM121.156 18.4688H129.719V14.4688H121.156V18.4688ZM129.016 7.25V11.0469H133.016V7.25H129.016ZM131.016 9.04688H121.156V13.0469H131.016V9.04688ZM123.156 11.0469V7.25H119.156V11.0469H123.156ZM121.156 9.25H131.016V5.25H121.156V9.25Z" fill="black" mask="url(#path-1-outside-1_1_8)"/>
<path d="M148.453 30V33.5312H136.328V30H148.453ZM155.234 7.25V30H150.656V7.25H155.234ZM162.359 16.9219V20.7031H154.078V16.9219H162.359ZM163.234 7.25V11.0469H154.078V7.25H163.234ZM170.656 7.25V30H166.109V7.25H170.656ZM178.875 7.25L182.125 14.8438L185.219 7.25H190.266L184.781 18.5156L190.375 30H185.125L181.891 22.2344L178.656 30H173.516L179.203 18.4219L173.641 7.25H178.875ZM205.797 26.2188V30H195.906V26.2188H205.797ZM197.328 7.25V30H192.75V7.25H197.328ZM204.469 16.4688V20.1406H195.906V16.4688H204.469ZM205.766 7.25V11.0469H195.906V7.25H205.766ZM214.406 30H210.391L210.422 26.2188H214.406C215.51 26.2188 216.37 26.0208 216.984 25.625C217.599 25.2292 218.031 24.6042 218.281 23.75C218.542 22.8958 218.672 21.776 218.672 20.3906V16.8438C218.672 15.7917 218.604 14.901 218.469 14.1719C218.333 13.4323 218.104 12.8385 217.781 12.3906C217.458 11.9323 217.026 11.5938 216.484 11.375C215.943 11.1562 215.271 11.0469 214.469 11.0469H210.312V7.25H214.469C215.781 7.25 216.974 7.46354 218.047 7.89062C219.12 8.31771 220.042 8.94271 220.812 9.76562C221.583 10.5781 222.177 11.5833 222.594 12.7812C223.01 13.9792 223.219 15.3438 223.219 16.875V20.3906C223.219 21.9323 223.01 23.2969 222.594 24.4844C222.177 25.6719 221.583 26.6771 220.812 27.5C220.052 28.3125 219.13 28.9323 218.047 29.3594C216.964 29.7865 215.75 30 214.406 30ZM213.047 7.25V30H208.469V7.25H213.047Z" fill="black"/>
</svg>
